<?xml version="1.0" encoding="UTF-8" standalone="no"?>
<!DOCTYPE svg PUBLIC "-//W3C//DTD SVG 1.1//EN" "http://www.w3.org/Graphics/SVG/1.1/DTD/svg11.dtd">
<svg width="100%" height="100%" viewBox="0 0 512 512" version="1.1" xmlns="http://www.w3.org/2000/svg" xmlns:xlink="http://www.w3.org/1999/xlink" xml:space="preserve" xmlns:serif="http://www.serif.com/" style="fill-rule:evenodd;clip-rule:evenodd;stroke-linejoin:round;stroke-miterlimit:2;">
    <g transform="matrix(1,0,0,1,3.55271e-15,-307.804)">
        <g id="Plan-de-travail1" serif:id="Plan de travail1" transform="matrix(2.09133,0,0,3.65579,-26.9668,-174.985)">
            <rect x="12.895" y="132.062" width="244.82" height="140.052" style="fill:none;"/>
            <g transform="matrix(0.239935,0,0,1.08811,134.879,162.277)">
                <path d="M68.506,3.601L154.138,3.601L154.138,69.942L68.506,69.942L68.506,3.601ZM226.925,3.601C271.168,3.601 310.06,4.486 343.599,6.256C377.138,8.026 404.969,10.382 427.09,13.322C449.212,16.263 465.744,19.608 476.686,23.359C487.628,27.11 493.098,30.965 493.098,34.926C493.098,40.387 488.46,45.053 479.183,48.924C469.906,52.794 458.132,56.035 443.86,58.645C429.588,61.256 413.532,63.311 395.692,64.811C377.852,66.312 360.606,67.437 343.956,68.187C327.305,68.937 312.082,69.417 298.285,69.627C284.489,69.837 274.261,69.942 267.6,69.942L183.396,69.942L183.396,62.021L239.056,62.021C297.096,62.021 338.961,59.68 364.65,55C390.34,50.319 403.185,43.538 403.185,34.656C403.185,31.896 400.568,29.165 395.335,26.465C390.102,23.764 379.993,21.319 365.007,19.128C350.021,16.938 329.684,15.168 303.994,13.817C278.304,12.467 245.003,11.792 204.09,11.792L183.396,11.792L183.396,3.601L226.925,3.601Z" style="fill:rgb(0,85,255);fill-rule:nonzero;"/>
            </g>
            <g transform="matrix(-0.239935,0,0,1.08811,135.731,162.277)">
                <path d="M68.506,3.601L154.138,3.601L154.138,69.942L68.506,69.942L68.506,3.601ZM226.925,3.601C271.168,3.601 310.06,4.486 343.599,6.256C377.138,8.026 404.969,10.382 427.09,13.322C449.212,16.263 465.744,19.608 476.686,23.359C487.628,27.11 493.098,30.965 493.098,34.926C493.098,40.387 488.46,45.053 479.183,48.924C469.906,52.794 458.132,56.035 443.86,58.645C429.588,61.256 413.532,63.311 395.692,64.811C377.852,66.312 360.606,67.437 343.956,68.187C327.305,68.937 312.082,69.417 298.285,69.627C284.489,69.837 274.261,69.942 267.6,69.942L183.396,69.942L183.396,62.021L239.056,62.021C297.096,62.021 338.961,59.68 364.65,55C390.34,50.319 403.185,43.538 403.185,34.656C403.185,31.896 400.568,29.165 395.335,26.465C390.102,23.764 379.993,21.319 365.007,19.128C350.021,16.938 329.684,15.168 303.994,13.817C278.304,12.467 245.003,11.792 204.09,11.792L183.396,11.792L183.396,3.601L226.925,3.601Z" style="fill:rgb(0,85,255);fill-rule:nonzero;"/>
            </g>
            <g id="W" transform="matrix(0.228652,0,0,0.677343,78.1417,177.306)">
                <path d="M156.924,60.429L221.73,3.576L243.487,3.576L243.487,27.443L193.031,69.815L120.355,69.815L33.792,3.576L96.747,3.576L156.924,60.429ZM410.132,3.576L473.087,3.576L380.969,69.815L308.756,69.815L262.466,29.142L262.466,3.576L284.685,3.576L344.863,60.429L410.132,3.576Z" style="fill:white;fill-rule:nonzero;"/>
            </g>
        </g>
    </g>
</svg>
